<?xml version="1.0" encoding="UTF-8" standalone="no"?>
<!DOCTYPE svg PUBLIC "-//W3C//DTD SVG 1.1//EN"
 "http://www.w3.org/Graphics/SVG/1.1/DTD/svg11.dtd">
<!-- Generated by graphviz version 5.0.0 (20220707.1540)
 -->
<!-- Title: dependencies Pages: 1 -->
<svg width="605pt" height="247pt"
 viewBox="0.00 0.00 605.00 246.80" xmlns="http://www.w3.org/2000/svg" xmlns:xlink="http://www.w3.org/1999/xlink">
<g id="graph0" class="graph" transform="scale(1 1) rotate(0) translate(4 242.8)">
<title>dependencies</title>
<polygon fill="white" stroke="transparent" points="-4,4 -4,-242.8 601,-242.8 601,4 -4,4"/>
<text text-anchor="middle" x="298.5" y="-8.2" font-family="sans-serif" font-size="14.00">dependencies</text>
<g id="clust1" class="cluster">
<title>cluster_SharedModule</title>
<polygon fill="none" stroke="black" stroke-dasharray="1,5" points="8,-32.8 8,-230.8 589,-230.8 589,-32.8 8,-32.8"/>
</g>
<g id="clust8" class="cluster">
<title>cluster_SharedModule_exports</title>
<polygon fill="none" stroke="black" points="16,-170.8 16,-222.8 581,-222.8 581,-170.8 16,-170.8"/>
</g>
<g id="clust2" class="cluster">
<title>cluster_SharedModule_declarations</title>
<polygon fill="none" stroke="black" points="24,-40.8 24,-92.8 575,-92.8 575,-40.8 24,-40.8"/>
</g>
<!-- HighlightDirective -->
<g id="node1" class="node">
<title>HighlightDirective</title>
<polygon fill="#ffffb3" stroke="black" points="566.75,-84.8 445.25,-84.8 445.25,-48.8 566.75,-48.8 566.75,-84.8"/>
<text text-anchor="middle" x="506" y="-62.6" font-family="Times,serif" font-size="14.00">HighlightDirective</text>
</g>
<!-- SharedModule -->
<g id="node5" class="node">
<title>SharedModule</title>
<polygon fill="#8dd3c7" stroke="black" points="294.43,-149.8 291.43,-153.8 270.43,-153.8 267.43,-149.8 195.57,-149.8 195.57,-113.8 294.43,-113.8 294.43,-149.8"/>
<text text-anchor="middle" x="245" y="-127.6" font-family="Times,serif" font-size="14.00">SharedModule</text>
</g>
<!-- HighlightDirective&#45;&gt;SharedModule -->
<g id="edge1" class="edge">
<title>HighlightDirective&#45;&gt;SharedModule</title>
<path fill="none" stroke="black" d="M527.04,-85.07C527.04,-103.36 527.04,-128.8 527.04,-128.8 527.04,-128.8 304.45,-128.8 304.45,-128.8"/>
<polygon fill="black" stroke="black" points="304.45,-125.3 294.45,-128.8 304.45,-132.3 304.45,-125.3"/>
</g>
<!-- ImgComponent -->
<g id="node2" class="node">
<title>ImgComponent</title>
<polygon fill="#ffffb3" stroke="black" points="426.88,-84.8 323.12,-84.8 323.12,-48.8 426.88,-48.8 426.88,-84.8"/>
<text text-anchor="middle" x="375" y="-62.6" font-family="Times,serif" font-size="14.00">ImgComponent</text>
</g>
<!-- ImgComponent&#45;&gt;SharedModule -->
<g id="edge2" class="edge">
<title>ImgComponent&#45;&gt;SharedModule</title>
<path fill="none" stroke="black" d="M392.31,-84.81C392.31,-100.85 392.31,-121.8 392.31,-121.8 392.31,-121.8 304.46,-121.8 304.46,-121.8"/>
<polygon fill="black" stroke="black" points="304.46,-118.3 294.46,-121.8 304.46,-125.3 304.46,-118.3"/>
</g>
<!-- ProductComponent -->
<g id="node3" class="node">
<title>ProductComponent</title>
<polygon fill="#ffffb3" stroke="black" points="305.38,-84.8 180.62,-84.8 180.62,-48.8 305.38,-48.8 305.38,-84.8"/>
<text text-anchor="middle" x="243" y="-62.6" font-family="Times,serif" font-size="14.00">ProductComponent</text>
</g>
<!-- ProductComponent&#45;&gt;SharedModule -->
<g id="edge3" class="edge">
<title>ProductComponent&#45;&gt;SharedModule</title>
<path fill="none" stroke="black" d="M245,-84.91C245,-84.91 245,-103.79 245,-103.79"/>
<polygon fill="black" stroke="black" points="241.5,-103.79 245,-113.79 248.5,-103.79 241.5,-103.79"/>
</g>
<!-- ProductsComponent -->
<g id="node4" class="node">
<title>ProductsComponent</title>
<polygon fill="#ffffb3" stroke="black" points="162.33,-84.8 31.67,-84.8 31.67,-48.8 162.33,-48.8 162.33,-84.8"/>
<text text-anchor="middle" x="97" y="-62.6" font-family="Times,serif" font-size="14.00">ProductsComponent</text>
</g>
<!-- ProductsComponent&#45;&gt;SharedModule -->
<g id="edge4" class="edge">
<title>ProductsComponent&#45;&gt;SharedModule</title>
<path fill="none" stroke="black" d="M115.89,-84.82C115.89,-102.17 115.89,-125.8 115.89,-125.8 115.89,-125.8 185.45,-125.8 185.45,-125.8"/>
<polygon fill="black" stroke="black" points="185.45,-129.3 195.45,-125.8 185.45,-122.3 185.45,-129.3"/>
</g>
<!-- HighlightDirective  -->
<g id="node6" class="node">
<title>HighlightDirective </title>
<polygon fill="#fb8072" stroke="black" points="572.75,-214.8 447.25,-214.8 447.25,-178.8 572.75,-178.8 572.75,-214.8"/>
<text text-anchor="middle" x="510" y="-192.6" font-family="Times,serif" font-size="14.00">HighlightDirective </text>
</g>
<!-- SharedModule&#45;&gt;HighlightDirective  -->
<g id="edge5" class="edge">
<title>SharedModule&#45;&gt;HighlightDirective </title>
<path fill="none" stroke="black" stroke-dasharray="5,2" d="M294.31,-135.8C365.12,-135.8 487.21,-135.8 487.21,-135.8 487.21,-135.8 487.21,-168.5 487.21,-168.5"/>
<polygon fill="black" stroke="black" points="483.71,-168.5 487.21,-178.5 490.71,-168.5 483.71,-168.5"/>
</g>
<!-- ImgComponent  -->
<g id="node7" class="node">
<title>ImgComponent </title>
<polygon fill="#fb8072" stroke="black" points="429.88,-214.8 322.12,-214.8 322.12,-178.8 429.88,-178.8 429.88,-214.8"/>
<text text-anchor="middle" x="376" y="-192.6" font-family="Times,serif" font-size="14.00">ImgComponent </text>
</g>
<!-- SharedModule&#45;&gt;ImgComponent  -->
<g id="edge6" class="edge">
<title>SharedModule&#45;&gt;ImgComponent </title>
<path fill="none" stroke="black" stroke-dasharray="5,2" d="M294.43,-142.8C324.7,-142.8 357.69,-142.8 357.69,-142.8 357.69,-142.8 357.69,-168.52 357.69,-168.52"/>
<polygon fill="black" stroke="black" points="354.19,-168.52 357.69,-178.52 361.19,-168.52 354.19,-168.52"/>
</g>
<!-- ProductComponent  -->
<g id="node8" class="node">
<title>ProductComponent </title>
<polygon fill="#fb8072" stroke="black" points="304.38,-214.8 175.62,-214.8 175.62,-178.8 304.38,-178.8 304.38,-214.8"/>
<text text-anchor="middle" x="240" y="-192.6" font-family="Times,serif" font-size="14.00">ProductComponent </text>
</g>
<!-- SharedModule&#45;&gt;ProductComponent  -->
<g id="edge7" class="edge">
<title>SharedModule&#45;&gt;ProductComponent </title>
<path fill="none" stroke="black" stroke-dasharray="5,2" d="M245,-149.91C245,-149.91 245,-168.79 245,-168.79"/>
<polygon fill="black" stroke="black" points="241.5,-168.79 245,-178.79 248.5,-168.79 241.5,-168.79"/>
</g>
<!-- ProductsComponent  -->
<g id="node9" class="node">
<title>ProductsComponent </title>
<polygon fill="#fb8072" stroke="black" points="157.83,-214.8 24.17,-214.8 24.17,-178.8 157.83,-178.8 157.83,-214.8"/>
<text text-anchor="middle" x="91" y="-192.6" font-family="Times,serif" font-size="14.00">ProductsComponent </text>
</g>
<!-- SharedModule&#45;&gt;ProductsComponent  -->
<g id="edge8" class="edge">
<title>SharedModule&#45;&gt;ProductsComponent </title>
<path fill="none" stroke="black" stroke-dasharray="5,2" d="M195.5,-137.8C144.96,-137.8 73.86,-137.8 73.86,-137.8 73.86,-137.8 73.86,-168.78 73.86,-168.78"/>
<polygon fill="black" stroke="black" points="70.36,-168.78 73.86,-178.78 77.36,-168.78 70.36,-168.78"/>
</g>
</g>
</svg>
