<?xml version="1.0" encoding="UTF-8" standalone="no"?>
<!DOCTYPE svg PUBLIC "-//W3C//DTD SVG 1.1//EN"
 "http://www.w3.org/Graphics/SVG/1.1/DTD/svg11.dtd">
<!-- Generated by graphviz version 5.0.0 (20220707.1540)
 -->
<!-- Title: dependencies Pages: 1 -->
<svg width="1984pt" height="174pt"
 viewBox="0.00 0.00 1984.00 173.80" xmlns="http://www.w3.org/2000/svg" xmlns:xlink="http://www.w3.org/1999/xlink">
<g id="graph0" class="graph" transform="scale(1 1) rotate(0) translate(4 169.8)">
<title>dependencies</title>
<polygon fill="white" stroke="transparent" points="-4,4 -4,-169.8 1980,-169.8 1980,4 -4,4"/>
<text text-anchor="middle" x="988" y="-8.2" font-family="sans-serif" font-size="14.00">dependencies</text>
<g id="clust1" class="cluster">
<title>cluster_WebsiteModule</title>
<polygon fill="none" stroke="black" stroke-dasharray="1,5" points="8,-32.8 8,-157.8 1968,-157.8 1968,-32.8 8,-32.8"/>
</g>
<g id="clust2" class="cluster">
<title>cluster_WebsiteModule_declarations</title>
<polygon fill="none" stroke="black" points="306,-40.8 306,-92.8 1960,-92.8 1960,-40.8 306,-40.8"/>
</g>
<g id="clust15" class="cluster">
<title>cluster_WebsiteModule_imports</title>
<polygon fill="none" stroke="black" points="16,-40.8 16,-92.8 298,-92.8 298,-40.8 16,-40.8"/>
</g>
<!-- HomeComponent -->
<g id="node1" class="node">
<title>HomeComponent</title>
<polygon fill="#ffffb3" stroke="black" points="1951.55,-84.8 1836.45,-84.8 1836.45,-48.8 1951.55,-48.8 1951.55,-84.8"/>
<text text-anchor="middle" x="1894" y="-62.6" font-family="Times,serif" font-size="14.00">HomeComponent</text>
</g>
<!-- WebsiteModule -->
<g id="node13" class="node">
<title>WebsiteModule</title>
<polygon fill="#8dd3c7" stroke="black" points="1018.92,-149.8 1015.92,-153.8 994.92,-153.8 991.92,-149.8 913.08,-149.8 913.08,-113.8 1018.92,-113.8 1018.92,-149.8"/>
<text text-anchor="middle" x="966" y="-127.6" font-family="Times,serif" font-size="14.00">WebsiteModule</text>
</g>
<!-- HomeComponent&#45;&gt;WebsiteModule -->
<g id="edge1" class="edge">
<title>HomeComponent&#45;&gt;WebsiteModule</title>
<path fill="none" stroke="black" d="M1894,-84.89C1894,-107.93 1894,-144.8 1894,-144.8 1894,-144.8 1028.89,-144.8 1028.89,-144.8"/>
<polygon fill="black" stroke="black" points="1028.89,-141.3 1018.89,-144.8 1028.89,-148.3 1028.89,-141.3"/>
</g>
<!-- LayoutComponent -->
<g id="node2" class="node">
<title>LayoutComponent</title>
<polygon fill="#ffffb3" stroke="black" points="1818.49,-84.8 1697.51,-84.8 1697.51,-48.8 1818.49,-48.8 1818.49,-84.8"/>
<text text-anchor="middle" x="1758" y="-62.6" font-family="Times,serif" font-size="14.00">LayoutComponent</text>
</g>
<!-- LayoutComponent&#45;&gt;WebsiteModule -->
<g id="edge2" class="edge">
<title>LayoutComponent&#45;&gt;WebsiteModule</title>
<path fill="none" stroke="black" d="M1758,-84.84C1758,-106.46 1758,-139.8 1758,-139.8 1758,-139.8 1028.89,-139.8 1028.89,-139.8"/>
<polygon fill="black" stroke="black" points="1028.89,-136.3 1018.89,-139.8 1028.89,-143.3 1028.89,-136.3"/>
</g>
<!-- LoginComponent -->
<g id="node3" class="node">
<title>LoginComponent</title>
<polygon fill="#ffffb3" stroke="black" points="1679.27,-84.8 1564.73,-84.8 1564.73,-48.8 1679.27,-48.8 1679.27,-84.8"/>
<text text-anchor="middle" x="1622" y="-62.6" font-family="Times,serif" font-size="14.00">LoginComponent</text>
</g>
<!-- LoginComponent&#45;&gt;WebsiteModule -->
<g id="edge3" class="edge">
<title>LoginComponent&#45;&gt;WebsiteModule</title>
<path fill="none" stroke="black" d="M1622,-85.02C1622,-105.17 1622,-134.8 1622,-134.8 1622,-134.8 1028.85,-134.8 1028.85,-134.8"/>
<polygon fill="black" stroke="black" points="1028.85,-131.3 1018.85,-134.8 1028.85,-138.3 1028.85,-131.3"/>
</g>
<!-- MyCartComponent -->
<g id="node4" class="node">
<title>MyCartComponent</title>
<polygon fill="#ffffb3" stroke="black" points="1546.38,-84.8 1421.62,-84.8 1421.62,-48.8 1546.38,-48.8 1546.38,-84.8"/>
<text text-anchor="middle" x="1484" y="-62.6" font-family="Times,serif" font-size="14.00">MyCartComponent</text>
</g>
<!-- MyCartComponent&#45;&gt;WebsiteModule -->
<g id="edge4" class="edge">
<title>MyCartComponent&#45;&gt;WebsiteModule</title>
<path fill="none" stroke="black" d="M1484,-85.02C1484,-103.63 1484,-129.8 1484,-129.8 1484,-129.8 1029,-129.8 1029,-129.8"/>
<polygon fill="black" stroke="black" points="1029,-126.3 1019,-129.8 1029,-133.3 1029,-126.3"/>
</g>
<!-- NavComponent -->
<g id="node5" class="node">
<title>NavComponent</title>
<polygon fill="#ffffb3" stroke="black" points="1403.16,-84.8 1298.84,-84.8 1298.84,-48.8 1403.16,-48.8 1403.16,-84.8"/>
<text text-anchor="middle" x="1351" y="-62.6" font-family="Times,serif" font-size="14.00">NavComponent</text>
</g>
<!-- NavComponent&#45;&gt;WebsiteModule -->
<g id="edge5" class="edge">
<title>NavComponent&#45;&gt;WebsiteModule</title>
<path fill="none" stroke="black" d="M1351,-84.83C1351,-101.86 1351,-124.8 1351,-124.8 1351,-124.8 1028.73,-124.8 1028.73,-124.8"/>
<polygon fill="black" stroke="black" points="1028.73,-121.3 1018.73,-124.8 1028.73,-128.3 1028.73,-121.3"/>
</g>
<!-- NotFoundComponent -->
<g id="node6" class="node">
<title>NotFoundComponent</title>
<polygon fill="#ffffb3" stroke="black" points="1281.12,-84.8 1142.88,-84.8 1142.88,-48.8 1281.12,-48.8 1281.12,-84.8"/>
<text text-anchor="middle" x="1212" y="-62.6" font-family="Times,serif" font-size="14.00">NotFoundComponent</text>
</g>
<!-- NotFoundComponent&#45;&gt;WebsiteModule -->
<g id="edge6" class="edge">
<title>NotFoundComponent&#45;&gt;WebsiteModule</title>
<path fill="none" stroke="black" d="M1212,-85.04C1212,-100.37 1212,-119.8 1212,-119.8 1212,-119.8 1028.77,-119.8 1028.77,-119.8"/>
<polygon fill="black" stroke="black" points="1028.77,-116.3 1018.77,-119.8 1028.77,-123.3 1028.77,-116.3"/>
</g>
<!-- ProductDetailComponent -->
<g id="node7" class="node">
<title>ProductDetailComponent</title>
<polygon fill="#ffffb3" stroke="black" points="1124.59,-84.8 965.41,-84.8 965.41,-48.8 1124.59,-48.8 1124.59,-84.8"/>
<text text-anchor="middle" x="1045" y="-62.6" font-family="Times,serif" font-size="14.00">ProductDetailComponent</text>
</g>
<!-- ProductDetailComponent&#45;&gt;WebsiteModule -->
<g id="edge7" class="edge">
<title>ProductDetailComponent&#45;&gt;WebsiteModule</title>
<path fill="none" stroke="black" d="M992.08,-84.91C992.08,-84.91 992.08,-103.79 992.08,-103.79"/>
<polygon fill="black" stroke="black" points="988.58,-103.79 992.08,-113.79 995.58,-103.79 988.58,-103.79"/>
</g>
<!-- ProfileComponent -->
<g id="node8" class="node">
<title>ProfileComponent</title>
<polygon fill="#ffffb3" stroke="black" points="947.94,-84.8 828.06,-84.8 828.06,-48.8 947.94,-48.8 947.94,-84.8"/>
<text text-anchor="middle" x="888" y="-62.6" font-family="Times,serif" font-size="14.00">ProfileComponent</text>
</g>
<!-- ProfileComponent&#45;&gt;WebsiteModule -->
<g id="edge8" class="edge">
<title>ProfileComponent&#45;&gt;WebsiteModule</title>
<path fill="none" stroke="black" d="M930.5,-84.91C930.5,-84.91 930.5,-103.79 930.5,-103.79"/>
<polygon fill="black" stroke="black" points="927,-103.79 930.5,-113.79 934,-103.79 927,-103.79"/>
</g>
<!-- RecoveryComponent -->
<g id="node9" class="node">
<title>RecoveryComponent</title>
<polygon fill="#ffffb3" stroke="black" points="810.47,-84.8 675.53,-84.8 675.53,-48.8 810.47,-48.8 810.47,-84.8"/>
<text text-anchor="middle" x="743" y="-62.6" font-family="Times,serif" font-size="14.00">RecoveryComponent</text>
</g>
<!-- RecoveryComponent&#45;&gt;WebsiteModule -->
<g id="edge9" class="edge">
<title>RecoveryComponent&#45;&gt;WebsiteModule</title>
<path fill="none" stroke="black" d="M743,-85.04C743,-100.37 743,-119.8 743,-119.8 743,-119.8 903.15,-119.8 903.15,-119.8"/>
<polygon fill="black" stroke="black" points="903.15,-123.3 913.15,-119.8 903.15,-116.3 903.15,-123.3"/>
</g>
<!-- RegisterComponent -->
<g id="node10" class="node">
<title>RegisterComponent</title>
<polygon fill="#ffffb3" stroke="black" points="657.99,-84.8 530.01,-84.8 530.01,-48.8 657.99,-48.8 657.99,-84.8"/>
<text text-anchor="middle" x="594" y="-62.6" font-family="Times,serif" font-size="14.00">RegisterComponent</text>
</g>
<!-- RegisterComponent&#45;&gt;WebsiteModule -->
<g id="edge10" class="edge">
<title>RegisterComponent&#45;&gt;WebsiteModule</title>
<path fill="none" stroke="black" d="M594,-84.83C594,-101.86 594,-124.8 594,-124.8 594,-124.8 903.1,-124.8 903.1,-124.8"/>
<polygon fill="black" stroke="black" points="903.1,-128.3 913.1,-124.8 903.1,-121.3 903.1,-128.3"/>
</g>
<!-- ReversePipe -->
<g id="node11" class="node">
<title>ReversePipe</title>
<polygon fill="#ffffb3" stroke="black" points="511.98,-84.8 426.02,-84.8 426.02,-48.8 511.98,-48.8 511.98,-84.8"/>
<text text-anchor="middle" x="469" y="-62.6" font-family="Times,serif" font-size="14.00">ReversePipe</text>
</g>
<!-- ReversePipe&#45;&gt;WebsiteModule -->
<g id="edge11" class="edge">
<title>ReversePipe&#45;&gt;WebsiteModule</title>
<path fill="none" stroke="black" d="M469,-85.02C469,-103.63 469,-129.8 469,-129.8 469,-129.8 903.28,-129.8 903.28,-129.8"/>
<polygon fill="black" stroke="black" points="903.28,-133.3 913.28,-129.8 903.28,-126.3 903.28,-133.3"/>
</g>
<!-- TimeAgoPipe -->
<g id="node12" class="node">
<title>TimeAgoPipe</title>
<polygon fill="#ffffb3" stroke="black" points="408.05,-84.8 313.95,-84.8 313.95,-48.8 408.05,-48.8 408.05,-84.8"/>
<text text-anchor="middle" x="361" y="-62.6" font-family="Times,serif" font-size="14.00">TimeAgoPipe</text>
</g>
<!-- TimeAgoPipe&#45;&gt;WebsiteModule -->
<g id="edge12" class="edge">
<title>TimeAgoPipe&#45;&gt;WebsiteModule</title>
<path fill="none" stroke="black" d="M361,-85.02C361,-105.17 361,-134.8 361,-134.8 361,-134.8 903.1,-134.8 903.1,-134.8"/>
<polygon fill="black" stroke="black" points="903.1,-138.3 913.1,-134.8 903.1,-131.3 903.1,-138.3"/>
</g>
<!-- SharedModule -->
<g id="node14" class="node">
<title>SharedModule</title>
<polygon fill="#8dd3c7" stroke="black" points="290.43,-84.8 287.43,-88.8 266.43,-88.8 263.43,-84.8 191.57,-84.8 191.57,-48.8 290.43,-48.8 290.43,-84.8"/>
<text text-anchor="middle" x="241" y="-62.6" font-family="Times,serif" font-size="14.00">SharedModule</text>
</g>
<!-- SharedModule&#45;&gt;WebsiteModule -->
<g id="edge13" class="edge">
<title>SharedModule&#45;&gt;WebsiteModule</title>
<path fill="none" stroke="black" d="M241,-84.84C241,-106.46 241,-139.8 241,-139.8 241,-139.8 903.28,-139.8 903.28,-139.8"/>
<polygon fill="black" stroke="black" points="903.28,-143.3 913.28,-139.8 903.28,-136.3 903.28,-143.3"/>
</g>
<!-- WebsiteRoutingModule -->
<g id="node15" class="node">
<title>WebsiteRoutingModule</title>
<polygon fill="#8dd3c7" stroke="black" points="174.04,-84.8 171.04,-88.8 150.04,-88.8 147.04,-84.8 23.96,-84.8 23.96,-48.8 174.04,-48.8 174.04,-84.8"/>
<text text-anchor="middle" x="99" y="-62.6" font-family="Times,serif" font-size="14.00">WebsiteRoutingModule</text>
</g>
<!-- WebsiteRoutingModule&#45;&gt;WebsiteModule -->
<g id="edge14" class="edge">
<title>WebsiteRoutingModule&#45;&gt;WebsiteModule</title>
<path fill="none" stroke="black" d="M99,-84.89C99,-107.93 99,-144.8 99,-144.8 99,-144.8 903.07,-144.8 903.07,-144.8"/>
<polygon fill="black" stroke="black" points="903.07,-148.3 913.07,-144.8 903.07,-141.3 903.07,-148.3"/>
</g>
</g>
</svg>
