<?xml version="1.0" encoding="UTF-8" standalone="no"?>
<!DOCTYPE svg PUBLIC "-//W3C//DTD SVG 1.1//EN"
 "http://www.w3.org/Graphics/SVG/1.1/DTD/svg11.dtd">
<!-- Generated by graphviz version 5.0.0 (20220707.1540)
 -->
<!-- Title: dependencies Pages: 1 -->
<svg width="484pt" height="247pt"
 viewBox="0.00 0.00 484.00 246.80" xmlns="http://www.w3.org/2000/svg" xmlns:xlink="http://www.w3.org/1999/xlink">
<g id="graph0" class="graph" transform="scale(1 1) rotate(0) translate(4 242.8)">
<title>dependencies</title>
<polygon fill="white" stroke="transparent" points="-4,4 -4,-242.8 480,-242.8 480,4 -4,4"/>
<text text-anchor="middle" x="238" y="-8.2" font-family="sans-serif" font-size="14.00">dependencies</text>
<g id="clust1" class="cluster">
<title>cluster_CategoryModule</title>
<polygon fill="none" stroke="black" stroke-dasharray="1,5" points="8,-32.8 8,-230.8 468,-230.8 468,-32.8 8,-32.8"/>
</g>
<g id="clust2" class="cluster">
<title>cluster_CategoryModule_declarations</title>
<polygon fill="none" stroke="black" points="312,-40.8 312,-92.8 460,-92.8 460,-40.8 312,-40.8"/>
</g>
<g id="clust4" class="cluster">
<title>cluster_CategoryModule_imports</title>
<polygon fill="none" stroke="black" points="16,-40.8 16,-92.8 304,-92.8 304,-40.8 16,-40.8"/>
</g>
<g id="clust5" class="cluster">
<title>cluster_CategoryModule_exports</title>
<polygon fill="none" stroke="black" points="142,-170.8 142,-222.8 294,-222.8 294,-170.8 142,-170.8"/>
</g>
<!-- CategoryComponent -->
<g id="node1" class="node">
<title>CategoryComponent</title>
<polygon fill="#ffffb3" stroke="black" points="452.15,-84.8 319.85,-84.8 319.85,-48.8 452.15,-48.8 452.15,-84.8"/>
<text text-anchor="middle" x="386" y="-62.6" font-family="Times,serif" font-size="14.00">CategoryComponent</text>
</g>
<!-- CategoryModule -->
<g id="node2" class="node">
<title>CategoryModule</title>
<polygon fill="#8dd3c7" stroke="black" points="273.37,-149.8 270.37,-153.8 249.37,-153.8 246.37,-149.8 162.63,-149.8 162.63,-113.8 273.37,-113.8 273.37,-149.8"/>
<text text-anchor="middle" x="218" y="-127.6" font-family="Times,serif" font-size="14.00">CategoryModule</text>
</g>
<!-- CategoryComponent&#45;&gt;CategoryModule -->
<g id="edge1" class="edge">
<title>CategoryComponent&#45;&gt;CategoryModule</title>
<path fill="none" stroke="black" d="M386,-84.91C386,-104.14 386,-131.8 386,-131.8 386,-131.8 283.48,-131.8 283.48,-131.8"/>
<polygon fill="black" stroke="black" points="283.48,-128.3 273.48,-131.8 283.48,-135.3 283.48,-128.3"/>
</g>
<!-- CategoryComponent  -->
<g id="node5" class="node">
<title>CategoryComponent </title>
<polygon fill="#fb8072" stroke="black" points="286.15,-214.8 149.85,-214.8 149.85,-178.8 286.15,-178.8 286.15,-214.8"/>
<text text-anchor="middle" x="218" y="-192.6" font-family="Times,serif" font-size="14.00">CategoryComponent </text>
</g>
<!-- CategoryModule&#45;&gt;CategoryComponent  -->
<g id="edge4" class="edge">
<title>CategoryModule&#45;&gt;CategoryComponent </title>
<path fill="none" stroke="black" stroke-dasharray="5,2" d="M218,-149.91C218,-149.91 218,-168.79 218,-168.79"/>
<polygon fill="black" stroke="black" points="214.5,-168.79 218,-178.79 221.5,-168.79 214.5,-168.79"/>
</g>
<!-- CategoryRoutingModule -->
<g id="node3" class="node">
<title>CategoryRoutingModule</title>
<polygon fill="#8dd3c7" stroke="black" points="295.99,-84.8 292.99,-88.8 271.99,-88.8 268.99,-84.8 140.01,-84.8 140.01,-48.8 295.99,-48.8 295.99,-84.8"/>
<text text-anchor="middle" x="218" y="-62.6" font-family="Times,serif" font-size="14.00">CategoryRoutingModule</text>
</g>
<!-- CategoryRoutingModule&#45;&gt;CategoryModule -->
<g id="edge2" class="edge">
<title>CategoryRoutingModule&#45;&gt;CategoryModule</title>
<path fill="none" stroke="black" d="M218,-84.91C218,-84.91 218,-103.79 218,-103.79"/>
<polygon fill="black" stroke="black" points="214.5,-103.79 218,-113.79 221.5,-103.79 214.5,-103.79"/>
</g>
<!-- SharedModule -->
<g id="node4" class="node">
<title>SharedModule</title>
<polygon fill="#8dd3c7" stroke="black" points="122.43,-84.8 119.43,-88.8 98.43,-88.8 95.43,-84.8 23.57,-84.8 23.57,-48.8 122.43,-48.8 122.43,-84.8"/>
<text text-anchor="middle" x="73" y="-62.6" font-family="Times,serif" font-size="14.00">SharedModule</text>
</g>
<!-- SharedModule&#45;&gt;CategoryModule -->
<g id="edge3" class="edge">
<title>SharedModule&#45;&gt;CategoryModule</title>
<path fill="none" stroke="black" d="M73,-84.91C73,-104.14 73,-131.8 73,-131.8 73,-131.8 152.35,-131.8 152.35,-131.8"/>
<polygon fill="black" stroke="black" points="152.35,-135.3 162.35,-131.8 152.35,-128.3 152.35,-135.3"/>
</g>
</g>
</svg>
