<?xml version="1.0" encoding="UTF-8" standalone="no"?>
<!DOCTYPE svg PUBLIC "-//W3C//DTD SVG 1.1//EN"
 "http://www.w3.org/Graphics/SVG/1.1/DTD/svg11.dtd">
<!-- Generated by graphviz version 5.0.0 (20220707.1540)
 -->
<!-- Title: dependencies Pages: 1 -->
<svg width="660pt" height="247pt"
 viewBox="0.00 0.00 660.00 246.80" xmlns="http://www.w3.org/2000/svg" xmlns:xlink="http://www.w3.org/1999/xlink">
<g id="graph0" class="graph" transform="scale(1 1) rotate(0) translate(4 242.8)">
<title>dependencies</title>
<polygon fill="white" stroke="transparent" points="-4,4 -4,-242.8 656,-242.8 656,4 -4,4"/>
<text text-anchor="middle" x="326" y="-8.2" font-family="sans-serif" font-size="14.00">dependencies</text>
<g id="clust1" class="cluster">
<title>cluster_AppModule</title>
<polygon fill="none" stroke="black" stroke-dasharray="1,5" points="8,-32.8 8,-230.8 644,-230.8 644,-32.8 8,-32.8"/>
</g>
<g id="clust7" class="cluster">
<title>cluster_AppModule_providers</title>
<polygon fill="none" stroke="black" points="298,-40.8 298,-92.8 636,-92.8 636,-40.8 298,-40.8"/>
</g>
<g id="clust2" class="cluster">
<title>cluster_AppModule_declarations</title>
<polygon fill="none" stroke="black" points="168,-40.8 168,-92.8 290,-92.8 290,-40.8 168,-40.8"/>
</g>
<g id="clust4" class="cluster">
<title>cluster_AppModule_imports</title>
<polygon fill="none" stroke="black" points="16,-40.8 16,-92.8 160,-92.8 160,-40.8 16,-40.8"/>
</g>
<g id="clust6" class="cluster">
<title>cluster_AppModule_bootstrap</title>
<polygon fill="none" stroke="black" points="244,-170.8 244,-222.8 368,-222.8 368,-170.8 244,-170.8"/>
</g>
<!-- AppComponent -->
<g id="node1" class="node">
<title>AppComponent</title>
<polygon fill="#ffffb3" stroke="black" points="281.94,-84.8 176.06,-84.8 176.06,-48.8 281.94,-48.8 281.94,-84.8"/>
<text text-anchor="middle" x="229" y="-62.6" font-family="Times,serif" font-size="14.00">AppComponent</text>
</g>
<!-- AppModule -->
<g id="node2" class="node">
<title>AppModule</title>
<polygon fill="#8dd3c7" stroke="black" points="347.66,-149.8 344.66,-153.8 323.66,-153.8 320.66,-149.8 264.34,-149.8 264.34,-113.8 347.66,-113.8 347.66,-149.8"/>
<text text-anchor="middle" x="306" y="-127.6" font-family="Times,serif" font-size="14.00">AppModule</text>
</g>
<!-- AppComponent&#45;&gt;AppModule -->
<g id="edge1" class="edge">
<title>AppComponent&#45;&gt;AppModule</title>
<path fill="none" stroke="black" d="M272.94,-84.91C272.94,-84.91 272.94,-103.79 272.94,-103.79"/>
<polygon fill="black" stroke="black" points="269.44,-103.79 272.94,-113.79 276.44,-103.79 269.44,-103.79"/>
</g>
<!-- AppComponent  -->
<g id="node4" class="node">
<title>AppComponent </title>
<polygon fill="#80b1d3" stroke="black" points="360.44,-214.8 251.56,-214.8 251.56,-178.8 360.44,-178.8 360.44,-214.8"/>
<text text-anchor="middle" x="306" y="-192.6" font-family="Times,serif" font-size="14.00">AppComponent </text>
</g>
<!-- AppModule&#45;&gt;AppComponent  -->
<g id="edge3" class="edge">
<title>AppModule&#45;&gt;AppComponent </title>
<path fill="none" stroke="black" stroke-dasharray="1,5" d="M306,-149.91C306,-149.91 306,-168.79 306,-168.79"/>
<polygon fill="black" stroke="black" points="302.5,-168.79 306,-178.79 309.5,-168.79 302.5,-168.79"/>
</g>
<!-- AppRoutingModule -->
<g id="node3" class="node">
<title>AppRoutingModule</title>
<polygon fill="#8dd3c7" stroke="black" points="152.28,-84.8 149.28,-88.8 128.28,-88.8 125.28,-84.8 23.72,-84.8 23.72,-48.8 152.28,-48.8 152.28,-84.8"/>
<text text-anchor="middle" x="88" y="-62.6" font-family="Times,serif" font-size="14.00">AppRoutingModule</text>
</g>
<!-- AppRoutingModule&#45;&gt;AppModule -->
<g id="edge2" class="edge">
<title>AppRoutingModule&#45;&gt;AppModule</title>
<path fill="none" stroke="black" d="M88,-84.91C88,-104.14 88,-131.8 88,-131.8 88,-131.8 254.23,-131.8 254.23,-131.8"/>
<polygon fill="black" stroke="black" points="254.23,-135.3 264.23,-131.8 254.23,-128.3 254.23,-135.3"/>
</g>
<!-- TimeInterceptor -->
<g id="node5" class="node">
<title>TimeInterceptor</title>
<ellipse fill="#fdb462" stroke="black" cx="554" cy="-66.8" rx="73.55" ry="18"/>
<text text-anchor="middle" x="554" y="-62.6" font-family="Times,serif" font-size="14.00">TimeInterceptor</text>
</g>
<!-- TimeInterceptor&#45;&gt;AppModule -->
<g id="edge4" class="edge">
<title>TimeInterceptor&#45;&gt;AppModule</title>
<path fill="none" stroke="black" d="M554,-84.91C554,-104.14 554,-131.8 554,-131.8 554,-131.8 357.79,-131.8 357.79,-131.8"/>
<polygon fill="black" stroke="black" points="357.79,-128.3 347.79,-131.8 357.79,-135.3 357.79,-128.3"/>
</g>
<!-- TokenInterceptor -->
<g id="node6" class="node">
<title>TokenInterceptor</title>
<ellipse fill="#fdb462" stroke="black" cx="384" cy="-66.8" rx="78.13" ry="18"/>
<text text-anchor="middle" x="384" y="-62.6" font-family="Times,serif" font-size="14.00">TokenInterceptor</text>
</g>
<!-- TokenInterceptor&#45;&gt;AppModule -->
<g id="edge5" class="edge">
<title>TokenInterceptor&#45;&gt;AppModule</title>
<path fill="none" stroke="black" d="M326.88,-79.33C326.88,-79.33 326.88,-103.65 326.88,-103.65"/>
<polygon fill="black" stroke="black" points="323.38,-103.65 326.88,-113.65 330.38,-103.65 323.38,-103.65"/>
</g>
</g>
</svg>
