<?xml version="1.0" encoding="UTF-8" standalone="no"?>
<!DOCTYPE svg PUBLIC "-//W3C//DTD SVG 1.1//EN"
 "http://www.w3.org/Graphics/SVG/1.1/DTD/svg11.dtd">
<!-- Generated by graphviz version 5.0.0 (20220707.1540)
 -->
<!-- Title: dependencies Pages: 1 -->
<svg width="587pt" height="174pt"
 viewBox="0.00 0.00 587.00 173.80" xmlns="http://www.w3.org/2000/svg" xmlns:xlink="http://www.w3.org/1999/xlink">
<g id="graph0" class="graph" transform="scale(1 1) rotate(0) translate(4 169.8)">
<title>dependencies</title>
<polygon fill="white" stroke="transparent" points="-4,4 -4,-169.8 583,-169.8 583,4 -4,4"/>
<text text-anchor="middle" x="289.5" y="-8.2" font-family="sans-serif" font-size="14.00">dependencies</text>
<g id="clust1" class="cluster">
<title>cluster_CmsModule</title>
<polygon fill="none" stroke="black" stroke-dasharray="1,5" points="8,-32.8 8,-157.8 571,-157.8 571,-32.8 8,-32.8"/>
</g>
<g id="clust2" class="cluster">
<title>cluster_CmsModule_declarations</title>
<polygon fill="none" stroke="black" points="170,-40.8 170,-92.8 563,-92.8 563,-40.8 170,-40.8"/>
</g>
<g id="clust6" class="cluster">
<title>cluster_CmsModule_imports</title>
<polygon fill="none" stroke="black" points="16,-40.8 16,-92.8 162,-92.8 162,-40.8 16,-40.8"/>
</g>
<!-- GridComponent -->
<g id="node1" class="node">
<title>GridComponent</title>
<polygon fill="#ffffb3" stroke="black" points="555.49,-84.8 448.51,-84.8 448.51,-48.8 555.49,-48.8 555.49,-84.8"/>
<text text-anchor="middle" x="502" y="-62.6" font-family="Times,serif" font-size="14.00">GridComponent</text>
</g>
<!-- CmsModule -->
<g id="node4" class="node">
<title>CmsModule</title>
<polygon fill="#8dd3c7" stroke="black" points="344.73,-149.8 341.73,-153.8 320.73,-153.8 317.73,-149.8 259.27,-149.8 259.27,-113.8 344.73,-113.8 344.73,-149.8"/>
<text text-anchor="middle" x="302" y="-127.6" font-family="Times,serif" font-size="14.00">CmsModule</text>
</g>
<!-- GridComponent&#45;&gt;CmsModule -->
<g id="edge1" class="edge">
<title>GridComponent&#45;&gt;CmsModule</title>
<path fill="none" stroke="black" d="M502,-84.91C502,-104.14 502,-131.8 502,-131.8 502,-131.8 354.91,-131.8 354.91,-131.8"/>
<polygon fill="black" stroke="black" points="354.91,-128.3 344.91,-131.8 354.9,-135.3 354.91,-128.3"/>
</g>
<!-- LayoutComponent -->
<g id="node2" class="node">
<title>LayoutComponent</title>
<polygon fill="#ffffb3" stroke="black" points="430.49,-84.8 309.51,-84.8 309.51,-48.8 430.49,-48.8 430.49,-84.8"/>
<text text-anchor="middle" x="370" y="-62.6" font-family="Times,serif" font-size="14.00">LayoutComponent</text>
</g>
<!-- LayoutComponent&#45;&gt;CmsModule -->
<g id="edge2" class="edge">
<title>LayoutComponent&#45;&gt;CmsModule</title>
<path fill="none" stroke="black" d="M327.06,-84.91C327.06,-84.91 327.06,-103.79 327.06,-103.79"/>
<polygon fill="black" stroke="black" points="323.56,-103.79 327.06,-113.79 330.56,-103.79 323.56,-103.79"/>
</g>
<!-- TasksComponent -->
<g id="node3" class="node">
<title>TasksComponent</title>
<polygon fill="#ffffb3" stroke="black" points="291.99,-84.8 178.01,-84.8 178.01,-48.8 291.99,-48.8 291.99,-84.8"/>
<text text-anchor="middle" x="235" y="-62.6" font-family="Times,serif" font-size="14.00">TasksComponent</text>
</g>
<!-- TasksComponent&#45;&gt;CmsModule -->
<g id="edge3" class="edge">
<title>TasksComponent&#45;&gt;CmsModule</title>
<path fill="none" stroke="black" d="M275.69,-84.91C275.69,-84.91 275.69,-103.79 275.69,-103.79"/>
<polygon fill="black" stroke="black" points="272.19,-103.79 275.69,-113.79 279.19,-103.79 272.19,-103.79"/>
</g>
<!-- CmsRoutingModule -->
<g id="node5" class="node">
<title>CmsRoutingModule</title>
<polygon fill="#8dd3c7" stroke="black" points="154.35,-84.8 151.35,-88.8 130.35,-88.8 127.35,-84.8 23.65,-84.8 23.65,-48.8 154.35,-48.8 154.35,-84.8"/>
<text text-anchor="middle" x="89" y="-62.6" font-family="Times,serif" font-size="14.00">CmsRoutingModule</text>
</g>
<!-- CmsRoutingModule&#45;&gt;CmsModule -->
<g id="edge4" class="edge">
<title>CmsRoutingModule&#45;&gt;CmsModule</title>
<path fill="none" stroke="black" d="M89,-84.91C89,-104.14 89,-131.8 89,-131.8 89,-131.8 249.15,-131.8 249.15,-131.8"/>
<polygon fill="black" stroke="black" points="249.15,-135.3 259.15,-131.8 249.15,-128.3 249.15,-135.3"/>
</g>
</g>
</svg>
