<?xml version="1.0" encoding="UTF-8" standalone="no"?>
<!DOCTYPE svg PUBLIC "-//W3C//DTD SVG 1.1//EN"
 "http://www.w3.org/Graphics/SVG/1.1/DTD/svg11.dtd">
<!-- Generated by graphviz version 5.0.0 (20220707.1540)
 -->
<!-- Title: dependencies Pages: 1 -->
<svg width="4560pt" height="253pt"
 viewBox="0.00 0.00 4560.00 252.80" xmlns="http://www.w3.org/2000/svg" xmlns:xlink="http://www.w3.org/1999/xlink">
<g id="graph0" class="graph" transform="scale(1 1) rotate(0) translate(4 248.8)">
<title>dependencies</title>
<polygon fill="white" stroke="transparent" points="-4,4 -4,-248.8 4556,-248.8 4556,4 -4,4"/>
<text text-anchor="middle" x="2276" y="-8.2" font-family="sans-serif" font-size="14.00">dependencies</text>
<g id="clust1" class="cluster">
<title>cluster_AppModule</title>
<polygon fill="none" stroke="black" stroke-dasharray="1,5" points="8,-32.8 8,-236.8 644,-236.8 644,-32.8 8,-32.8"/>
</g>
<g id="clust2" class="cluster">
<title>cluster_AppModule_declarations</title>
<polygon fill="none" stroke="black" points="514,-40.8 514,-92.8 636,-92.8 636,-40.8 514,-40.8"/>
</g>
<g id="clust4" class="cluster">
<title>cluster_AppModule_imports</title>
<polygon fill="none" stroke="black" points="362,-40.8 362,-92.8 506,-92.8 506,-40.8 362,-40.8"/>
</g>
<g id="clust6" class="cluster">
<title>cluster_AppModule_bootstrap</title>
<polygon fill="none" stroke="black" points="291,-176.8 291,-228.8 415,-228.8 415,-176.8 291,-176.8"/>
</g>
<g id="clust7" class="cluster">
<title>cluster_AppModule_providers</title>
<polygon fill="none" stroke="black" points="16,-40.8 16,-92.8 354,-92.8 354,-40.8 16,-40.8"/>
</g>
<g id="clust14" class="cluster">
<title>cluster_CategoryModule</title>
<polygon fill="none" stroke="black" stroke-dasharray="1,5" points="652,-32.8 652,-236.8 1112,-236.8 1112,-32.8 652,-32.8"/>
</g>
<g id="clust15" class="cluster">
<title>cluster_CategoryModule_declarations</title>
<polygon fill="none" stroke="black" points="660,-40.8 660,-92.8 808,-92.8 808,-40.8 660,-40.8"/>
</g>
<g id="clust17" class="cluster">
<title>cluster_CategoryModule_imports</title>
<polygon fill="none" stroke="black" points="816,-40.8 816,-92.8 1104,-92.8 1104,-40.8 816,-40.8"/>
</g>
<g id="clust18" class="cluster">
<title>cluster_CategoryModule_exports</title>
<polygon fill="none" stroke="black" points="826,-176.8 826,-228.8 978,-228.8 978,-176.8 826,-176.8"/>
</g>
<g id="clust27" class="cluster">
<title>cluster_CmsModule</title>
<polygon fill="none" stroke="black" stroke-dasharray="1,5" points="3981,-32.8 3981,-160.8 4544,-160.8 4544,-32.8 3981,-32.8"/>
</g>
<g id="clust28" class="cluster">
<title>cluster_CmsModule_declarations</title>
<polygon fill="none" stroke="black" points="3989,-40.8 3989,-92.8 4382,-92.8 4382,-40.8 3989,-40.8"/>
</g>
<g id="clust32" class="cluster">
<title>cluster_CmsModule_imports</title>
<polygon fill="none" stroke="black" points="4390,-40.8 4390,-92.8 4536,-92.8 4536,-40.8 4390,-40.8"/>
</g>
<g id="clust42" class="cluster">
<title>cluster_SharedModule</title>
<polygon fill="none" stroke="black" stroke-dasharray="1,5" points="1120,-100.8 1120,-168.8 2260,-168.8 2260,-100.8 1120,-100.8"/>
</g>
<g id="clust43" class="cluster">
<title>cluster_SharedModule_declarations</title>
<polygon fill="none" stroke="black" points="1701,-108.8 1701,-160.8 2252,-160.8 2252,-108.8 1701,-108.8"/>
</g>
<g id="clust49" class="cluster">
<title>cluster_SharedModule_exports</title>
<polygon fill="none" stroke="black" points="1128,-108.8 1128,-160.8 1693,-160.8 1693,-108.8 1128,-108.8"/>
</g>
<g id="clust52" class="cluster">
<title>cluster_WebsiteModule</title>
<polygon fill="none" stroke="black" stroke-dasharray="1,5" points="2268,-32.8 2268,-160.8 3973,-160.8 3973,-32.8 2268,-32.8"/>
</g>
<g id="clust53" class="cluster">
<title>cluster_WebsiteModule_declarations</title>
<polygon fill="none" stroke="black" points="2450,-40.8 2450,-92.8 3965,-92.8 3965,-40.8 2450,-40.8"/>
</g>
<g id="clust66" class="cluster">
<title>cluster_WebsiteModule_imports</title>
<polygon fill="none" stroke="black" points="2276,-40.8 2276,-92.8 2442,-92.8 2442,-40.8 2276,-40.8"/>
</g>
<!-- AppComponent -->
<g id="node1" class="node">
<title>AppComponent</title>
<polygon fill="#ffffb3" stroke="black" points="627.94,-84.8 522.06,-84.8 522.06,-48.8 627.94,-48.8 627.94,-84.8"/>
<text text-anchor="middle" x="575" y="-62.6" font-family="Times,serif" font-size="14.00">AppComponent</text>
</g>
<!-- AppModule -->
<g id="node2" class="node">
<title>AppModule</title>
<polygon fill="#8dd3c7" stroke="black" points="394.66,-152.8 391.66,-156.8 370.66,-156.8 367.66,-152.8 311.34,-152.8 311.34,-116.8 394.66,-116.8 394.66,-152.8"/>
<text text-anchor="middle" x="353" y="-130.6" font-family="Times,serif" font-size="14.00">AppModule</text>
</g>
<!-- AppComponent&#45;&gt;AppModule -->
<g id="edge1" class="edge">
<title>AppComponent&#45;&gt;AppModule</title>
<path fill="none" stroke="black" d="M575,-85.07C575,-103.36 575,-128.8 575,-128.8 575,-128.8 404.76,-128.8 404.76,-128.8"/>
<polygon fill="black" stroke="black" points="404.76,-125.3 394.76,-128.8 404.76,-132.3 404.76,-125.3"/>
</g>
<!-- AppComponent  -->
<g id="node4" class="node">
<title>AppComponent </title>
<polygon fill="#80b1d3" stroke="black" points="407.44,-220.8 298.56,-220.8 298.56,-184.8 407.44,-184.8 407.44,-220.8"/>
<text text-anchor="middle" x="353" y="-198.6" font-family="Times,serif" font-size="14.00">AppComponent </text>
</g>
<!-- AppModule&#45;&gt;AppComponent  -->
<g id="edge3" class="edge">
<title>AppModule&#45;&gt;AppComponent </title>
<path fill="none" stroke="black" stroke-dasharray="1,5" d="M353,-153.02C353,-153.02 353,-174.53 353,-174.53"/>
<polygon fill="black" stroke="black" points="349.5,-174.53 353,-184.53 356.5,-174.53 349.5,-174.53"/>
</g>
<!-- AppRoutingModule -->
<g id="node3" class="node">
<title>AppRoutingModule</title>
<polygon fill="#8dd3c7" stroke="black" points="498.28,-84.8 495.28,-88.8 474.28,-88.8 471.28,-84.8 369.72,-84.8 369.72,-48.8 498.28,-48.8 498.28,-84.8"/>
<text text-anchor="middle" x="434" y="-62.6" font-family="Times,serif" font-size="14.00">AppRoutingModule</text>
</g>
<!-- AppRoutingModule&#45;&gt;AppModule -->
<g id="edge2" class="edge">
<title>AppRoutingModule&#45;&gt;AppModule</title>
<path fill="none" stroke="black" d="M382.22,-85.02C382.22,-85.02 382.22,-106.53 382.22,-106.53"/>
<polygon fill="black" stroke="black" points="378.72,-106.53 382.22,-116.53 385.72,-106.53 378.72,-106.53"/>
</g>
<!-- TimeInterceptor -->
<g id="node5" class="node">
<title>TimeInterceptor</title>
<ellipse fill="#fdb462" stroke="black" cx="272" cy="-66.8" rx="73.55" ry="18"/>
<text text-anchor="middle" x="272" y="-62.6" font-family="Times,serif" font-size="14.00">TimeInterceptor</text>
</g>
<!-- TimeInterceptor&#45;&gt;AppModule -->
<g id="edge4" class="edge">
<title>TimeInterceptor&#45;&gt;AppModule</title>
<path fill="none" stroke="black" d="M328.47,-78.64C328.47,-78.64 328.47,-106.7 328.47,-106.7"/>
<polygon fill="black" stroke="black" points="324.97,-106.7 328.47,-116.7 331.97,-106.7 324.97,-106.7"/>
</g>
<!-- TokenInterceptor -->
<g id="node6" class="node">
<title>TokenInterceptor</title>
<ellipse fill="#fdb462" stroke="black" cx="102" cy="-66.8" rx="78.13" ry="18"/>
<text text-anchor="middle" x="102" y="-62.6" font-family="Times,serif" font-size="14.00">TokenInterceptor</text>
</g>
<!-- TokenInterceptor&#45;&gt;AppModule -->
<g id="edge5" class="edge">
<title>TokenInterceptor&#45;&gt;AppModule</title>
<path fill="none" stroke="black" d="M102,-85.02C102,-105.17 102,-134.8 102,-134.8 102,-134.8 301.27,-134.8 301.27,-134.8"/>
<polygon fill="black" stroke="black" points="301.27,-138.3 311.27,-134.8 301.27,-131.3 301.27,-138.3"/>
</g>
<!-- CategoryComponent -->
<g id="node7" class="node">
<title>CategoryComponent</title>
<polygon fill="#ffffb3" stroke="black" points="800.15,-84.8 667.85,-84.8 667.85,-48.8 800.15,-48.8 800.15,-84.8"/>
<text text-anchor="middle" x="734" y="-62.6" font-family="Times,serif" font-size="14.00">CategoryComponent</text>
</g>
<!-- CategoryModule -->
<g id="node8" class="node">
<title>CategoryModule</title>
<polygon fill="#8dd3c7" stroke="black" points="957.37,-152.8 954.37,-156.8 933.37,-156.8 930.37,-152.8 846.63,-152.8 846.63,-116.8 957.37,-116.8 957.37,-152.8"/>
<text text-anchor="middle" x="902" y="-130.6" font-family="Times,serif" font-size="14.00">CategoryModule</text>
</g>
<!-- CategoryComponent&#45;&gt;CategoryModule -->
<g id="edge6" class="edge">
<title>CategoryComponent&#45;&gt;CategoryModule</title>
<path fill="none" stroke="black" d="M734,-85.09C734,-107.01 734,-140.8 734,-140.8 734,-140.8 836.52,-140.8 836.52,-140.8"/>
<polygon fill="black" stroke="black" points="836.52,-144.3 846.52,-140.8 836.52,-137.3 836.52,-144.3"/>
</g>
<!-- CategoryComponent  -->
<g id="node11" class="node">
<title>CategoryComponent </title>
<polygon fill="#fb8072" stroke="black" points="970.15,-220.8 833.85,-220.8 833.85,-184.8 970.15,-184.8 970.15,-220.8"/>
<text text-anchor="middle" x="902" y="-198.6" font-family="Times,serif" font-size="14.00">CategoryComponent </text>
</g>
<!-- CategoryModule&#45;&gt;CategoryComponent  -->
<g id="edge9" class="edge">
<title>CategoryModule&#45;&gt;CategoryComponent </title>
<path fill="none" stroke="black" stroke-dasharray="5,2" d="M902,-153.02C902,-153.02 902,-174.53 902,-174.53"/>
<polygon fill="black" stroke="black" points="898.5,-174.53 902,-184.53 905.5,-174.53 898.5,-174.53"/>
</g>
<!-- CategoryRoutingModule -->
<g id="node9" class="node">
<title>CategoryRoutingModule</title>
<polygon fill="#8dd3c7" stroke="black" points="979.99,-84.8 976.99,-88.8 955.99,-88.8 952.99,-84.8 824.01,-84.8 824.01,-48.8 979.99,-48.8 979.99,-84.8"/>
<text text-anchor="middle" x="902" y="-62.6" font-family="Times,serif" font-size="14.00">CategoryRoutingModule</text>
</g>
<!-- CategoryRoutingModule&#45;&gt;CategoryModule -->
<g id="edge7" class="edge">
<title>CategoryRoutingModule&#45;&gt;CategoryModule</title>
<path fill="none" stroke="black" d="M902,-85.02C902,-85.02 902,-106.53 902,-106.53"/>
<polygon fill="black" stroke="black" points="898.5,-106.53 902,-116.53 905.5,-106.53 898.5,-106.53"/>
</g>
<!-- SharedModule -->
<g id="node10" class="node">
<title>SharedModule</title>
<polygon fill="#8dd3c7" stroke="black" points="1096.43,-84.8 1093.43,-88.8 1072.43,-88.8 1069.43,-84.8 997.57,-84.8 997.57,-48.8 1096.43,-48.8 1096.43,-84.8"/>
<text text-anchor="middle" x="1047" y="-62.6" font-family="Times,serif" font-size="14.00">SharedModule</text>
</g>
<!-- SharedModule&#45;&gt;CategoryModule -->
<g id="edge8" class="edge">
<title>SharedModule&#45;&gt;CategoryModule</title>
<path fill="none" stroke="black" d="M1030.6,-85.09C1030.6,-107.01 1030.6,-140.8 1030.6,-140.8 1030.6,-140.8 967.66,-140.8 967.66,-140.8"/>
<polygon fill="black" stroke="black" points="967.66,-137.3 957.66,-140.8 967.66,-144.3 967.66,-137.3"/>
</g>
<!-- HighlightDirective  -->
<g id="node21" class="node">
<title>HighlightDirective </title>
<polygon fill="#fb8072" stroke="black" points="1684.75,-152.8 1559.25,-152.8 1559.25,-116.8 1684.75,-116.8 1684.75,-152.8"/>
<text text-anchor="middle" x="1622" y="-130.6" font-family="Times,serif" font-size="14.00">HighlightDirective </text>
</g>
<!-- SharedModule&#45;&gt;HighlightDirective  -->
<g id="edge18" class="edge">
<title>SharedModule&#45;&gt;HighlightDirective </title>
<path fill="none" stroke="black" stroke-dasharray="5,2" d="M1096.52,-72.8C1236,-72.8 1622,-72.8 1622,-72.8 1622,-72.8 1622,-106.53 1622,-106.53"/>
<polygon fill="black" stroke="black" points="1618.5,-106.53 1622,-116.53 1625.5,-106.53 1618.5,-106.53"/>
</g>
<!-- ImgComponent  -->
<g id="node22" class="node">
<title>ImgComponent </title>
<polygon fill="#fb8072" stroke="black" points="1541.88,-152.8 1434.12,-152.8 1434.12,-116.8 1541.88,-116.8 1541.88,-152.8"/>
<text text-anchor="middle" x="1488" y="-130.6" font-family="Times,serif" font-size="14.00">ImgComponent </text>
</g>
<!-- SharedModule&#45;&gt;ImgComponent  -->
<g id="edge19" class="edge">
<title>SharedModule&#45;&gt;ImgComponent </title>
<path fill="none" stroke="black" stroke-dasharray="5,2" d="M1096.3,-76.8C1211.38,-76.8 1488,-76.8 1488,-76.8 1488,-76.8 1488,-106.77 1488,-106.77"/>
<polygon fill="black" stroke="black" points="1484.5,-106.77 1488,-116.77 1491.5,-106.77 1484.5,-106.77"/>
</g>
<!-- ProductComponent  -->
<g id="node23" class="node">
<title>ProductComponent </title>
<polygon fill="#fb8072" stroke="black" points="1416.38,-152.8 1287.62,-152.8 1287.62,-116.8 1416.38,-116.8 1416.38,-152.8"/>
<text text-anchor="middle" x="1352" y="-130.6" font-family="Times,serif" font-size="14.00">ProductComponent </text>
</g>
<!-- SharedModule&#45;&gt;ProductComponent  -->
<g id="edge20" class="edge">
<title>SharedModule&#45;&gt;ProductComponent </title>
<path fill="none" stroke="black" stroke-dasharray="5,2" d="M1096.34,-80.8C1182.66,-80.8 1352,-80.8 1352,-80.8 1352,-80.8 1352,-106.52 1352,-106.52"/>
<polygon fill="black" stroke="black" points="1348.5,-106.52 1352,-116.52 1355.5,-106.52 1348.5,-106.52"/>
</g>
<!-- ProductsComponent  -->
<g id="node24" class="node">
<title>ProductsComponent </title>
<polygon fill="#fb8072" stroke="black" points="1269.83,-152.8 1136.17,-152.8 1136.17,-116.8 1269.83,-116.8 1269.83,-152.8"/>
<text text-anchor="middle" x="1203" y="-130.6" font-family="Times,serif" font-size="14.00">ProductsComponent </text>
</g>
<!-- SharedModule&#45;&gt;ProductsComponent  -->
<g id="edge21" class="edge">
<title>SharedModule&#45;&gt;ProductsComponent </title>
<path fill="none" stroke="black" stroke-dasharray="5,2" d="M1063.4,-85.07C1063.4,-103.36 1063.4,-128.8 1063.4,-128.8 1063.4,-128.8 1126.06,-128.8 1126.06,-128.8"/>
<polygon fill="black" stroke="black" points="1126.06,-132.3 1136.06,-128.8 1126.06,-125.3 1126.06,-132.3"/>
</g>
<!-- WebsiteModule -->
<g id="node36" class="node">
<title>WebsiteModule</title>
<polygon fill="#8dd3c7" stroke="black" points="3162.92,-152.8 3159.92,-156.8 3138.92,-156.8 3135.92,-152.8 3057.08,-152.8 3057.08,-116.8 3162.92,-116.8 3162.92,-152.8"/>
<text text-anchor="middle" x="3110" y="-130.6" font-family="Times,serif" font-size="14.00">WebsiteModule</text>
</g>
<!-- SharedModule&#45;&gt;WebsiteModule -->
<g id="edge34" class="edge">
<title>SharedModule&#45;&gt;WebsiteModule</title>
<path fill="none" stroke="black" d="M1096.59,-52.8C1324.9,-52.8 2263.8,-52.8 2263.8,-52.8 2263.8,-52.8 2263.8,-147.8 2263.8,-147.8 2263.8,-147.8 3047.07,-147.8 3047.07,-147.8"/>
<polygon fill="black" stroke="black" points="3047.07,-151.3 3057.07,-147.8 3047.07,-144.3 3047.07,-151.3"/>
</g>
<!-- GridComponent -->
<g id="node12" class="node">
<title>GridComponent</title>
<polygon fill="#ffffb3" stroke="black" points="4242.49,-84.8 4135.51,-84.8 4135.51,-48.8 4242.49,-48.8 4242.49,-84.8"/>
<text text-anchor="middle" x="4189" y="-62.6" font-family="Times,serif" font-size="14.00">GridComponent</text>
</g>
<!-- CmsModule -->
<g id="node15" class="node">
<title>CmsModule</title>
<polygon fill="#8dd3c7" stroke="black" points="4295.73,-152.8 4292.73,-156.8 4271.73,-156.8 4268.73,-152.8 4210.27,-152.8 4210.27,-116.8 4295.73,-116.8 4295.73,-152.8"/>
<text text-anchor="middle" x="4253" y="-130.6" font-family="Times,serif" font-size="14.00">CmsModule</text>
</g>
<!-- GridComponent&#45;&gt;CmsModule -->
<g id="edge10" class="edge">
<title>GridComponent&#45;&gt;CmsModule</title>
<path fill="none" stroke="black" d="M4226.44,-85.02C4226.44,-85.02 4226.44,-106.53 4226.44,-106.53"/>
<polygon fill="black" stroke="black" points="4222.94,-106.53 4226.44,-116.53 4229.94,-106.53 4222.94,-106.53"/>
</g>
<!-- LayoutComponent -->
<g id="node13" class="node">
<title>LayoutComponent</title>
<polygon fill="#ffffb3" stroke="black" points="4117.49,-84.8 3996.51,-84.8 3996.51,-48.8 4117.49,-48.8 4117.49,-84.8"/>
<text text-anchor="middle" x="4057" y="-62.6" font-family="Times,serif" font-size="14.00">LayoutComponent</text>
</g>
<!-- LayoutComponent&#45;&gt;CmsModule -->
<g id="edge11" class="edge">
<title>LayoutComponent&#45;&gt;CmsModule</title>
<path fill="none" stroke="black" d="M4077.16,-85C4077.16,-109.16 4077.16,-148.8 4077.16,-148.8 4077.16,-148.8 4199.99,-148.8 4199.99,-148.8"/>
<polygon fill="black" stroke="black" points="4199.99,-152.3 4209.99,-148.8 4199.99,-145.3 4199.99,-152.3"/>
</g>
<!-- LayoutComponent&#45;&gt;WebsiteModule -->
<g id="edge23" class="edge">
<title>LayoutComponent&#45;&gt;WebsiteModule</title>
<path fill="none" stroke="black" d="M4036.84,-85.05C4036.84,-107.82 4036.84,-143.8 4036.84,-143.8 4036.84,-143.8 3172.82,-143.8 3172.82,-143.8"/>
<polygon fill="black" stroke="black" points="3172.82,-140.3 3162.82,-143.8 3172.82,-147.3 3172.82,-140.3"/>
</g>
<!-- TasksComponent -->
<g id="node14" class="node">
<title>TasksComponent</title>
<polygon fill="#ffffb3" stroke="black" points="4373.99,-84.8 4260.01,-84.8 4260.01,-48.8 4373.99,-48.8 4373.99,-84.8"/>
<text text-anchor="middle" x="4317" y="-62.6" font-family="Times,serif" font-size="14.00">TasksComponent</text>
</g>
<!-- TasksComponent&#45;&gt;CmsModule -->
<g id="edge12" class="edge">
<title>TasksComponent&#45;&gt;CmsModule</title>
<path fill="none" stroke="black" d="M4277.81,-85.02C4277.81,-85.02 4277.81,-106.53 4277.81,-106.53"/>
<polygon fill="black" stroke="black" points="4274.31,-106.53 4277.81,-116.53 4281.31,-106.53 4274.31,-106.53"/>
</g>
<!-- CmsRoutingModule -->
<g id="node16" class="node">
<title>CmsRoutingModule</title>
<polygon fill="#8dd3c7" stroke="black" points="4528.35,-84.8 4525.35,-88.8 4504.35,-88.8 4501.35,-84.8 4397.65,-84.8 4397.65,-48.8 4528.35,-48.8 4528.35,-84.8"/>
<text text-anchor="middle" x="4463" y="-62.6" font-family="Times,serif" font-size="14.00">CmsRoutingModule</text>
</g>
<!-- CmsRoutingModule&#45;&gt;CmsModule -->
<g id="edge13" class="edge">
<title>CmsRoutingModule&#45;&gt;CmsModule</title>
<path fill="none" stroke="black" d="M4463,-85.02C4463,-105.17 4463,-134.8 4463,-134.8 4463,-134.8 4305.75,-134.8 4305.75,-134.8"/>
<polygon fill="black" stroke="black" points="4305.75,-131.3 4295.75,-134.8 4305.75,-138.3 4305.75,-131.3"/>
</g>
<!-- HighlightDirective -->
<g id="node17" class="node">
<title>HighlightDirective</title>
<polygon fill="#ffffb3" stroke="black" points="2243.75,-152.8 2122.25,-152.8 2122.25,-116.8 2243.75,-116.8 2243.75,-152.8"/>
<text text-anchor="middle" x="2183" y="-130.6" font-family="Times,serif" font-size="14.00">HighlightDirective</text>
</g>
<!-- HighlightDirective&#45;&gt;SharedModule -->
<g id="edge14" class="edge">
<title>HighlightDirective&#45;&gt;SharedModule</title>
<path fill="none" stroke="black" d="M2183,-116.71C2183,-93.67 2183,-56.8 2183,-56.8 2183,-56.8 1106.54,-56.8 1106.54,-56.8"/>
<polygon fill="black" stroke="black" points="1106.54,-53.3 1096.54,-56.8 1106.54,-60.3 1106.54,-53.3"/>
</g>
<!-- ImgComponent -->
<g id="node18" class="node">
<title>ImgComponent</title>
<polygon fill="#ffffb3" stroke="black" points="2103.88,-152.8 2000.12,-152.8 2000.12,-116.8 2103.88,-116.8 2103.88,-152.8"/>
<text text-anchor="middle" x="2052" y="-130.6" font-family="Times,serif" font-size="14.00">ImgComponent</text>
</g>
<!-- ImgComponent&#45;&gt;SharedModule -->
<g id="edge15" class="edge">
<title>ImgComponent&#45;&gt;SharedModule</title>
<path fill="none" stroke="black" d="M2052,-116.51C2052,-94.59 2052,-60.8 2052,-60.8 2052,-60.8 1106.5,-60.8 1106.5,-60.8"/>
<polygon fill="black" stroke="black" points="1106.5,-57.3 1096.5,-60.8 1106.5,-64.3 1106.5,-57.3"/>
</g>
<!-- ProductComponent -->
<g id="node19" class="node">
<title>ProductComponent</title>
<polygon fill="#ffffb3" stroke="black" points="1982.38,-152.8 1857.62,-152.8 1857.62,-116.8 1982.38,-116.8 1982.38,-152.8"/>
<text text-anchor="middle" x="1920" y="-130.6" font-family="Times,serif" font-size="14.00">ProductComponent</text>
</g>
<!-- ProductComponent&#45;&gt;SharedModule -->
<g id="edge16" class="edge">
<title>ProductComponent&#45;&gt;SharedModule</title>
<path fill="none" stroke="black" d="M1920,-116.77C1920,-96.03 1920,-64.8 1920,-64.8 1920,-64.8 1106.44,-64.8 1106.44,-64.8"/>
<polygon fill="black" stroke="black" points="1106.44,-61.3 1096.44,-64.8 1106.44,-68.3 1106.44,-61.3"/>
</g>
<!-- ProductsComponent -->
<g id="node20" class="node">
<title>ProductsComponent</title>
<polygon fill="#ffffb3" stroke="black" points="1839.33,-152.8 1708.67,-152.8 1708.67,-116.8 1839.33,-116.8 1839.33,-152.8"/>
<text text-anchor="middle" x="1774" y="-130.6" font-family="Times,serif" font-size="14.00">ProductsComponent</text>
</g>
<!-- ProductsComponent&#45;&gt;SharedModule -->
<g id="edge17" class="edge">
<title>ProductsComponent&#45;&gt;SharedModule</title>
<path fill="none" stroke="black" d="M1774,-116.77C1774,-97.22 1774,-68.8 1774,-68.8 1774,-68.8 1106.4,-68.8 1106.4,-68.8"/>
<polygon fill="black" stroke="black" points="1106.4,-65.3 1096.4,-68.8 1106.4,-72.3 1106.4,-65.3"/>
</g>
<!-- HomeComponent -->
<g id="node25" class="node">
<title>HomeComponent</title>
<polygon fill="#ffffb3" stroke="black" points="3956.55,-84.8 3841.45,-84.8 3841.45,-48.8 3956.55,-48.8 3956.55,-84.8"/>
<text text-anchor="middle" x="3899" y="-62.6" font-family="Times,serif" font-size="14.00">HomeComponent</text>
</g>
<!-- HomeComponent&#45;&gt;WebsiteModule -->
<g id="edge22" class="edge">
<title>HomeComponent&#45;&gt;WebsiteModule</title>
<path fill="none" stroke="black" d="M3899,-84.84C3899,-106.46 3899,-139.8 3899,-139.8 3899,-139.8 3172.99,-139.8 3172.99,-139.8"/>
<polygon fill="black" stroke="black" points="3172.99,-136.3 3162.99,-139.8 3172.99,-143.3 3172.99,-136.3"/>
</g>
<!-- LoginComponent -->
<g id="node26" class="node">
<title>LoginComponent</title>
<polygon fill="#ffffb3" stroke="black" points="3823.27,-84.8 3708.73,-84.8 3708.73,-48.8 3823.27,-48.8 3823.27,-84.8"/>
<text text-anchor="middle" x="3766" y="-62.6" font-family="Times,serif" font-size="14.00">LoginComponent</text>
</g>
<!-- LoginComponent&#45;&gt;WebsiteModule -->
<g id="edge24" class="edge">
<title>LoginComponent&#45;&gt;WebsiteModule</title>
<path fill="none" stroke="black" d="M3766,-85.02C3766,-105.17 3766,-134.8 3766,-134.8 3766,-134.8 3172.85,-134.8 3172.85,-134.8"/>
<polygon fill="black" stroke="black" points="3172.85,-131.3 3162.85,-134.8 3172.85,-138.3 3172.85,-131.3"/>
</g>
<!-- MyCartComponent -->
<g id="node27" class="node">
<title>MyCartComponent</title>
<polygon fill="#ffffb3" stroke="black" points="3690.38,-84.8 3565.62,-84.8 3565.62,-48.8 3690.38,-48.8 3690.38,-84.8"/>
<text text-anchor="middle" x="3628" y="-62.6" font-family="Times,serif" font-size="14.00">MyCartComponent</text>
</g>
<!-- MyCartComponent&#45;&gt;WebsiteModule -->
<g id="edge25" class="edge">
<title>MyCartComponent&#45;&gt;WebsiteModule</title>
<path fill="none" stroke="black" d="M3628,-84.97C3628,-103.89 3628,-130.8 3628,-130.8 3628,-130.8 3173,-130.8 3173,-130.8"/>
<polygon fill="black" stroke="black" points="3173,-127.3 3163,-130.8 3173,-134.3 3173,-127.3"/>
</g>
<!-- NavComponent -->
<g id="node28" class="node">
<title>NavComponent</title>
<polygon fill="#ffffb3" stroke="black" points="3547.16,-84.8 3442.84,-84.8 3442.84,-48.8 3547.16,-48.8 3547.16,-84.8"/>
<text text-anchor="middle" x="3495" y="-62.6" font-family="Times,serif" font-size="14.00">NavComponent</text>
</g>
<!-- NavComponent&#45;&gt;WebsiteModule -->
<g id="edge26" class="edge">
<title>NavComponent&#45;&gt;WebsiteModule</title>
<path fill="none" stroke="black" d="M3495,-84.82C3495,-102.17 3495,-125.8 3495,-125.8 3495,-125.8 3172.73,-125.8 3172.73,-125.8"/>
<polygon fill="black" stroke="black" points="3172.73,-122.3 3162.73,-125.8 3172.73,-129.3 3172.73,-122.3"/>
</g>
<!-- NotFoundComponent -->
<g id="node29" class="node">
<title>NotFoundComponent</title>
<polygon fill="#ffffb3" stroke="black" points="3425.12,-84.8 3286.88,-84.8 3286.88,-48.8 3425.12,-48.8 3425.12,-84.8"/>
<text text-anchor="middle" x="3356" y="-62.6" font-family="Times,serif" font-size="14.00">NotFoundComponent</text>
</g>
<!-- NotFoundComponent&#45;&gt;WebsiteModule -->
<g id="edge27" class="edge">
<title>NotFoundComponent&#45;&gt;WebsiteModule</title>
<path fill="none" stroke="black" d="M3356,-84.81C3356,-100.85 3356,-121.8 3356,-121.8 3356,-121.8 3172.77,-121.8 3172.77,-121.8"/>
<polygon fill="black" stroke="black" points="3172.77,-118.3 3162.77,-121.8 3172.77,-125.3 3172.77,-118.3"/>
</g>
<!-- ProductDetailComponent -->
<g id="node30" class="node">
<title>ProductDetailComponent</title>
<polygon fill="#ffffb3" stroke="black" points="3268.59,-84.8 3109.41,-84.8 3109.41,-48.8 3268.59,-48.8 3268.59,-84.8"/>
<text text-anchor="middle" x="3189" y="-62.6" font-family="Times,serif" font-size="14.00">ProductDetailComponent</text>
</g>
<!-- ProductDetailComponent&#45;&gt;WebsiteModule -->
<g id="edge28" class="edge">
<title>ProductDetailComponent&#45;&gt;WebsiteModule</title>
<path fill="none" stroke="black" d="M3136.08,-85.02C3136.08,-85.02 3136.08,-106.53 3136.08,-106.53"/>
<polygon fill="black" stroke="black" points="3132.58,-106.53 3136.08,-116.53 3139.58,-106.53 3132.58,-106.53"/>
</g>
<!-- ProfileComponent -->
<g id="node31" class="node">
<title>ProfileComponent</title>
<polygon fill="#ffffb3" stroke="black" points="3091.94,-84.8 2972.06,-84.8 2972.06,-48.8 3091.94,-48.8 3091.94,-84.8"/>
<text text-anchor="middle" x="3032" y="-62.6" font-family="Times,serif" font-size="14.00">ProfileComponent</text>
</g>
<!-- ProfileComponent&#45;&gt;WebsiteModule -->
<g id="edge29" class="edge">
<title>ProfileComponent&#45;&gt;WebsiteModule</title>
<path fill="none" stroke="black" d="M3074.5,-85.02C3074.5,-85.02 3074.5,-106.53 3074.5,-106.53"/>
<polygon fill="black" stroke="black" points="3071,-106.53 3074.5,-116.53 3078,-106.53 3071,-106.53"/>
</g>
<!-- RecoveryComponent -->
<g id="node32" class="node">
<title>RecoveryComponent</title>
<polygon fill="#ffffb3" stroke="black" points="2954.47,-84.8 2819.53,-84.8 2819.53,-48.8 2954.47,-48.8 2954.47,-84.8"/>
<text text-anchor="middle" x="2887" y="-62.6" font-family="Times,serif" font-size="14.00">RecoveryComponent</text>
</g>
<!-- RecoveryComponent&#45;&gt;WebsiteModule -->
<g id="edge30" class="edge">
<title>RecoveryComponent&#45;&gt;WebsiteModule</title>
<path fill="none" stroke="black" d="M2887,-84.83C2887,-101.2 2887,-122.8 2887,-122.8 2887,-122.8 3047.15,-122.8 3047.15,-122.8"/>
<polygon fill="black" stroke="black" points="3047.15,-126.3 3057.15,-122.8 3047.15,-119.3 3047.15,-126.3"/>
</g>
<!-- RegisterComponent -->
<g id="node33" class="node">
<title>RegisterComponent</title>
<polygon fill="#ffffb3" stroke="black" points="2801.99,-84.8 2674.01,-84.8 2674.01,-48.8 2801.99,-48.8 2801.99,-84.8"/>
<text text-anchor="middle" x="2738" y="-62.6" font-family="Times,serif" font-size="14.00">RegisterComponent</text>
</g>
<!-- RegisterComponent&#45;&gt;WebsiteModule -->
<g id="edge31" class="edge">
<title>RegisterComponent&#45;&gt;WebsiteModule</title>
<path fill="none" stroke="black" d="M2738,-85.1C2738,-103.07 2738,-127.8 2738,-127.8 2738,-127.8 3047.1,-127.8 3047.1,-127.8"/>
<polygon fill="black" stroke="black" points="3047.1,-131.3 3057.1,-127.8 3047.1,-124.3 3047.1,-131.3"/>
</g>
<!-- ReversePipe -->
<g id="node34" class="node">
<title>ReversePipe</title>
<polygon fill="#ffffb3" stroke="black" points="2655.98,-84.8 2570.02,-84.8 2570.02,-48.8 2655.98,-48.8 2655.98,-84.8"/>
<text text-anchor="middle" x="2613" y="-62.6" font-family="Times,serif" font-size="14.00">ReversePipe</text>
</g>
<!-- ReversePipe&#45;&gt;WebsiteModule -->
<g id="edge32" class="edge">
<title>ReversePipe&#45;&gt;WebsiteModule</title>
<path fill="none" stroke="black" d="M2613,-84.83C2613,-104.38 2613,-132.8 2613,-132.8 2613,-132.8 3047.28,-132.8 3047.28,-132.8"/>
<polygon fill="black" stroke="black" points="3047.28,-136.3 3057.28,-132.8 3047.28,-129.3 3047.28,-136.3"/>
</g>
<!-- TimeAgoPipe -->
<g id="node35" class="node">
<title>TimeAgoPipe</title>
<polygon fill="#ffffb3" stroke="black" points="2552.05,-84.8 2457.95,-84.8 2457.95,-48.8 2552.05,-48.8 2552.05,-84.8"/>
<text text-anchor="middle" x="2505" y="-62.6" font-family="Times,serif" font-size="14.00">TimeAgoPipe</text>
</g>
<!-- TimeAgoPipe&#45;&gt;WebsiteModule -->
<g id="edge33" class="edge">
<title>TimeAgoPipe&#45;&gt;WebsiteModule</title>
<path fill="none" stroke="black" d="M2505,-85.08C2505,-106.12 2505,-137.8 2505,-137.8 2505,-137.8 3047.1,-137.8 3047.1,-137.8"/>
<polygon fill="black" stroke="black" points="3047.1,-141.3 3057.1,-137.8 3047.1,-134.3 3047.1,-141.3"/>
</g>
<!-- WebsiteRoutingModule -->
<g id="node37" class="node">
<title>WebsiteRoutingModule</title>
<polygon fill="#8dd3c7" stroke="black" points="2434.04,-84.8 2431.04,-88.8 2410.04,-88.8 2407.04,-84.8 2283.96,-84.8 2283.96,-48.8 2434.04,-48.8 2434.04,-84.8"/>
<text text-anchor="middle" x="2359" y="-62.6" font-family="Times,serif" font-size="14.00">WebsiteRoutingModule</text>
</g>
<!-- WebsiteRoutingModule&#45;&gt;WebsiteModule -->
<g id="edge35" class="edge">
<title>WebsiteRoutingModule&#45;&gt;WebsiteModule</title>
<path fill="none" stroke="black" d="M2359,-84.81C2359,-107.29 2359,-142.8 2359,-142.8 2359,-142.8 3047.19,-142.8 3047.19,-142.8"/>
<polygon fill="black" stroke="black" points="3047.19,-146.3 3057.19,-142.8 3047.19,-139.3 3047.19,-146.3"/>
</g>
</g>
</svg>
